# xmcd
#
# Track frame offsets: 
#        150
#        21733
#        47554
#        65610
#        88040
#        105937
#        128320
#        152432
#        178386
#        201326
#        218999
#
# Disc length: 3258 seconds
#
# Revision: 0
# Processed by: cddbd v1.5.2PL0 Copyright (c) Steve Scherf et al.
# Submitted via: ExactAudioCopy v0.95a5
#
DISCID=960cb80b
DTITLE=Jim Conway's Big Wheel - Share This Life
DYEAR=2008
DGENRE=Blues
TTITLE0=Share This Life
TTITLE1=You Were Going To Put Me Down
TTITLE2=Just Your Friend
TTITLE3=We're The Ones Who Make The Fun
TTITLE4=Dances All Alone
TTITLE5=I Need You Here Right Now
TTITLE6=Running Away With The Blues
TTITLE7=Big Troubles
TTITLE8=Please Send My Baby Back To Me
TTITLE9=Been Doin' Something Wrong
TTITLE10=Feels Good Like The Blues
EXTD=
EXTT0=
EXTT1=
EXTT2=
EXTT3=
EXTT4=
EXTT5=
EXTT6=
EXTT7=
EXTT8=
EXTT9=
EXTT10=
PLAYORDER=
